<svg xmlns="http://www.w3.org/2000/svg" viewBox="0 0 128 128" width="512" height="512" role="img" aria-label="Erica Burns Things seal app icon">
  <circle cx="64" cy="64" r="64" fill="#1B1815"></circle>
  <g transform="translate(28,22) scale(0.7)">
    <path d="M52 6 C60 30 76 40 76 68 C76 92 64 108 50 108 C34 108 24 92 26 72 C27 60 36 56 41 44 C44 57 39 62 48 66 C56 58 56 32 52 6 Z" fill="#4FC7BE"></path>
    <path d="M50 54 C54 66 62 70 62 82 C62 93 57 100 50 100 C43 100 39 92 39 83 C39 74 45 70 50 62 Z" fill="#14807C"></path>
  </g>
</svg>