<svg xmlns="http://www.w3.org/2000/svg" viewBox="0 0 560 150" width="560" height="150" role="img" aria-label="Erica Burns Things">
  <defs>
    
  </defs>
  <rect x="0" y="0" width="560" height="150" fill="#1B1815"></rect>
  <g transform="translate(34,33) scale(0.66)">
    <path d="M52 6 C60 30 76 40 76 68 C76 92 64 108 50 108 C34 108 24 92 26 72 C27 60 36 56 41 44 C44 57 39 62 48 66 C56 58 56 32 52 6 Z" fill="#4FC7BE"></path>
    <path d="M50 54 C54 66 62 70 62 82 C62 93 57 100 50 100 C43 100 39 92 39 83 C39 74 45 70 50 62 Z" fill="#14807C"></path>
    <g stroke="#5A544C" stroke-width="2.4" stroke-linecap="round"><path d="M50 112 L50 122"></path><path d="M34 111 L28 120"></path><path d="M66 111 L72 120"></path></g>
  </g>
  <line x1="120" y1="42" x2="120" y2="108" stroke="#3A352F" stroke-width="1.5"></line>
  <text x="142" y="86" font-family="Bricolage Grotesque, sans-serif" font-weight="800" font-size="42" letter-spacing="-0.3" fill="#EFE7D8">erica<tspan fill="#4FC7BE">burns</tspan>things</text>
  <text x="143" y="112" font-family="Work Sans, sans-serif" font-weight="600" font-size="11.5" letter-spacing="1.6" fill="#9A9088">BURNED IN · PRINTED ON · MADE TO ORDER</text>
</svg>